<svg xmlns="http://www.w3.org/2000/svg" width="50" height="47" viewBox="50 47">

  <g fill="none" fill-rule="evenodd">
    <path d="M19.83 5.94A18.07 18.07 0 005.4 23.54a18.1 18.1 0 0016.9 17.94V33.5a10.1 10.1 0 01-8.86-9.96c0-5.1 3.87-9.33 8.85-9.97v-2.46a12.57 12.57 0 00-11.32 12.43c0 5.58 3.72 10.32 8.85 11.92v3.17a15.61 15.61 0 01-11.94-15.1c0-8.13 6.35-14.82 14.41-15.49V.22C9.9.9 0 11.1 0 23.54c0 12.43 9.89 22.63 22.3 23.31V44.4c-11.05-.68-19.83-9.77-19.83-20.86A21 21 0 0119.83 2.98" fill="#36342E" fill-rule="nonzero"/>
    <path d="M24.92 0v2.47A21.19 21.19 0 0144.88 23.5a21.16 21.16 0 01-17.47 20.72v-2.98A18.21 18.21 0 0041.93 23.5c0-9.56-7.52-17.41-17-18.1v8.05c5.01.65 8.9 4.9 8.9 10.05 0 5.14-3.89 9.4-8.9 10.05v2.48c6.39-.66 11.4-6.03 11.4-12.53 0-5.63-3.76-10.4-8.92-12.02V8.3A15.73 15.73 0 0139.43 23.5c0 8.2-6.4 14.95-14.5 15.62V47c12.49-.68 22.44-10.96 22.44-23.5S37.42.69 24.92 0" fill="#2D82B8" fill-rule="nonzero"/>

  </g>
</svg>